<?xml version="1.0" encoding="utf-8"?>
<!-- Generator: Adobe Illustrator 27.5.0, SVG Export Plug-In . SVG Version: 6.00 Build 0)  -->
<svg version="1.1" id="Layer_1" xmlns="http://www.w3.org/2000/svg" xmlns:xlink="http://www.w3.org/1999/xlink" x="0px" y="0px"
	 viewBox="0 0 30.41 8.22" enable-background="new 0 0 30.41 8.22" xml:space="preserve">
<g>
	<path fill="#808080" d="M2.52,0h1.04v5.41c0,2.15-1.06,2.81-2.45,2.81C0.73,8.22,0.26,8.13,0,8.02l0.16-0.85
		c0.22,0.08,0.53,0.16,0.88,0.16c0.94,0,1.49-0.42,1.49-2V0z"/>
	<path fill="#808080" d="M4.87,7.46c0-0.44,0.3-0.76,0.72-0.76S6.3,7.02,6.3,7.46c0,0.43-0.28,0.76-0.72,0.76
		C5.16,8.22,4.87,7.89,4.87,7.46z"/>
	<path fill="#808080" d="M14.46,4.53c-0.06-1.13-0.13-2.48-0.12-3.49H14.3C14.02,1.99,13.69,3,13.28,4.11l-1.43,3.92h-0.79
		L9.75,4.19C9.37,3.05,9.05,2,8.82,1.04H8.79C8.77,2.05,8.71,3.41,8.64,4.62L8.42,8.08h-1L7.99,0h1.33l1.38,3.91
		c0.34,1,0.61,1.88,0.82,2.72h0.04c0.2-0.82,0.49-1.7,0.85-2.72L13.84,0h1.33l0.5,8.08h-1.02L14.46,4.53z"/>
	<path fill="#808080" d="M17,7.46c0-0.44,0.3-0.76,0.72-0.76s0.71,0.31,0.71,0.76c0,0.43-0.28,0.76-0.72,0.76
		C17.29,8.22,17,7.89,17,7.46z"/>
	<path fill="#808080" d="M21.09,8.08L19.04,0h1.1l0.96,4.09c0.24,1.01,0.46,2.01,0.6,2.79h0.02c0.13-0.8,0.38-1.76,0.66-2.81
		L23.47,0h1.09l0.98,4.1c0.23,0.96,0.44,1.92,0.56,2.77h0.02c0.17-0.89,0.4-1.79,0.65-2.79L27.85,0h1.07l-2.29,8.08h-1.09
		l-1.02-4.21c-0.25-1.03-0.42-1.82-0.53-2.64h-0.02c-0.14,0.8-0.32,1.6-0.62,2.64l-1.15,4.21H21.09z"/>
	<path fill="#808080" d="M28.98,7.46c0-0.44,0.3-0.76,0.72-0.76s0.71,0.31,0.71,0.76c0,0.43-0.28,0.76-0.72,0.76
		C29.27,8.22,28.98,7.89,28.98,7.46z"/>
</g>
</svg>
